HIERARCHY
ROOT Hips
{
	OFFSET	0.00	0.00	0.00
	CHANNELS 6 Xposition Yposition Zposition Zrotation Xrotation Yrotation
	JOINT Spine
	{
		OFFSET	 0.00	0.01	 0.00
		CHANNELS 3 Zrotation Xrotation Yrotation
		JOINT Spine1
		{
			OFFSET	 0.00	 2.45913012437421	 0.00
			CHANNELS 3 Zrotation Xrotation Yrotation
            JOINT Neck
            {
                OFFSET	 0.00	 2.48462964506057	 0.00
                CHANNELS 3 Zrotation Xrotation Yrotation
                JOINT Head
                {
                    OFFSET	 0.00	 0.927524780924562	 0.00
                    CHANNELS 3 Zrotation Xrotation Yrotation
                    End Site 
                    {
                        OFFSET	 0.00	 1.14999962169752	 0.00
                    }
                }
            }
			JOINT LeftShoulder
			{
				OFFSET	 0.00	 2.48462964506057	 0.00
				CHANNELS 3 Zrotation Xrotation Yrotation
				JOINT LeftUpArm
				{
					OFFSET	 0.00	 1.24881979654096	 0.00
					CHANNELS 3 Zrotation Xrotation Yrotation
					JOINT LeftForeArm
					{
						OFFSET	 0.00	2.59758046908119	 0.00
						CHANNELS 3 Zrotation Xrotation Yrotation
						JOINT LeftHand
						{
							OFFSET	 0.00	2.45542024364365	 0.00
							CHANNELS 3 Zrotation Xrotation Yrotation
							JOINT LeftHandThumb 
							{
								OFFSET	 0.00	0.00	 0.00
								CHANNELS 3 Zrotation Xrotation Yrotation
								End Site
								{
									OFFSET	 0.00	0.00	1.00000003353624
								}
							}
							JOINT L_Wrist_End 
							{
								OFFSET	 0.00	0.99999967115358	 0.00
								CHANNELS 3 Zrotation Xrotation Yrotation
								End Site 
								{
									OFFSET	 0.00	 0.00	 0.00
								}
							}
						}
					}
				}
			}
			JOINT RightShoulder
			{
				OFFSET	 0.00	 2.48462964506057	 0.00
				CHANNELS 3 Zrotation Xrotation Yrotation
				JOINT RightUpArm
				{
					OFFSET	 0.00	 1.24881979654096	 0.00
					CHANNELS 3 Zrotation Xrotation Yrotation
					JOINT RightForeArm
					{
						OFFSET	 0.00	2.59758046908119	 0.00
						CHANNELS 3 Zrotation Xrotation Yrotation
						JOINT RightHand
						{
							OFFSET	 0.00	2.45542024364365	 0.00
							CHANNELS 3 Zrotation Xrotation Yrotation
							JOINT RightHandThumb 
							{
								OFFSET	 0.00	0.00	 0.00
								CHANNELS 3 Zrotation Xrotation Yrotation
								End Site
								{
									OFFSET	 0.00	0.00	1.00000003353624
								}
							}
							JOINT R_Wrist_End 
							{
								OFFSET	 0.00	0.99999967115358	 0.00
								CHANNELS 3 Zrotation Xrotation Yrotation
								End Site 
								{
									OFFSET	 0.00	 0.00	 0.00
								}
							}
						}
					}
				}
			}
		}
	}
	JOINT LeftUpLeg
	{
		OFFSET	 1.2719394002717	 0.00	 0.00
		CHANNELS 3 Zrotation Xrotation Yrotation
		JOINT LeftLowLeg
		{
			OFFSET	 0.00	-4.3429100912261	 0.00
			CHANNELS 3 Zrotation Xrotation Yrotation
			JOINT LeftFoot
			{
				OFFSET	 0.00	-4.48767017425826	 0.00
				CHANNELS 3 Zrotation Xrotation Yrotation
				JOINT LeftToeBase
                {
                    OFFSET	 0.00	0.00	 1.51507020887566
                    CHANNELS 3 Zrotation Xrotation Yrotation
                    End Site 
                    {
                        OFFSET	 0.00	0.00	 0.75000010571191
                    }
                }
			}
		}
	}
	JOINT RightUpLeg
	{
		OFFSET	 -1.2719393604653	 0.00	 0.00
		CHANNELS 3 Zrotation Xrotation Yrotation
		JOINT RightLowLeg
		{
			OFFSET	 0.00	-4.3429100912261	 0.00
			CHANNELS 3 Zrotation Xrotation Yrotation
			JOINT RightFoot
			{
				OFFSET	 0.00	-4.48767017425826	 0.00
				CHANNELS 3 Zrotation Xrotation Yrotation
				JOINT RightToeBase
                {
                    OFFSET	 0.00	0.00	 1.51507020887566
                    CHANNELS 3 Zrotation Xrotation Yrotation
                    End Site 
                    {
                        OFFSET	 0.00	0.00	 0.749999965609858
                    }
                }   
			}
		}
	}
}
MOTION 
Frames:	8 
Frame Time: 0.02 
  3.9847698974609376 3.7053900146484375 9.958460083007813 -156.181 68.2075 157.028 4.85067 -4.97765 5.29967 -0.843642 9.22989 3.82234 32.3465 22.5754 -10.5116 11.8533 -52.6241 17.6089 -96.88412 -5.19635 4.8824 -28.2438 13.482 5.84474 0.0 124.831 0.0 22.2717 -17.8549 -46.6776 0.0 0.0 0.0 0.0 0.0 0.0 100.3703 -5.52838 0.644127 -42.0071 56.1697 34.2768 0.0 116.309 0.0 -1.82934 -18.1587 59.1314 0.0 0.0 0.0 0.0 0.0 0.0 4.76737 -22.112 0.187242 0.0 7.71318 0.0 15.1034 8.77644 -4.21332 0.0 -32.7566 0.0 1.69445 -11.0709 0.934253 0.0 11.1623 0.0 11.1063 20.61425 2.61418 0.0 -32.8491 0.0 
  3.991830139160156 3.710740051269531 9.95698974609375 -156.381 68.0183 157.129 4.97318 -4.78145 5.52818 -1.13252 9.19705 4.03117 32.6368 22.7591 -10.5889 11.9453 -52.7358 17.6078 -96.7593 -5.23446 4.92804 -28.4311 13.1443 6.03753 0.0 126.057 0.0 22.5091 -18.1076 -46.3954 0.0 0.0 0.0 0.0 0.0 0.0 100.5731 -5.72333 0.611427 -42.1884 55.8443 34.5829 0.0 117.492 0.0 -2.28299 -18.5648 59.1465 0.0 0.0 0.0 0.0 0.0 0.0 4.77486 -22.3216 0.341758 0.0 7.69082 0.0 15.1258 8.74881 -4.2869 0.0 -32.7579 0.0 1.69152 -11.244 0.972975 0.0 11.0363 0.0 11.085 20.597721 2.56114 0.0 -32.7776 0.0 
  3.998710021972656 3.7179400634765627 9.95551025390625 -156.572 67.8482 157.209 4.94406 -4.68352 5.44426 -1.1142 9.43832 3.9531 32.3326 22.889 -10.1195 12.1084 -52.6735 17.6472 -96.91776 -5.82824 4.81716 -28.4266 12.897 6.12917 0.0 127.107 0.0 22.9974 -18.3526 -45.7506 0.0 0.0 0.0 0.0 0.0 0.0 100.4662 -5.45461 0.721046 -42.2878 55.7521 34.823 0.0 118.45 0.0 -3.07311 -19.2064 58.8603 0.0 0.0 0.0 0.0 0.0 0.0 4.77909 -22.5523 0.452272 0.0 7.73496 0.0 15.1221 8.717831 -4.30597 0.0 -32.7406 0.0 1.69356 -11.4356 1.09746 0.0 10.9687 0.0 11.1197 20.549099 2.44917 0.0 -32.6752 0.0 
  4.004679870605469 3.7230899047851564 9.955040283203125 -156.831 67.6703 157.422 4.85493 -4.70399 5.37223 -1.07196 9.77977 3.89805 32.1197 22.9374 -9.81128 12.2533 -52.6727 17.7421 -97.04828 -6.24773 4.71797 -28.4308 12.6849 6.1791 0.0 127.96 0.0 23.5231 -18.5809 -45.2711 0.0 0.0 0.0 0.0 0.0 0.0 100.4431 -5.34308 0.980167 -42.3245 55.7698 35.0081 0.0 119.133 0.0 -3.67043 -19.8898 58.2656 0.0 0.0 0.0 0.0 0.0 0.0 4.73526 -22.792 0.561718 0.0 7.75535 0.0 15.2 8.7366 -4.35567 0.0 -32.7523 0.0 1.65776 -11.6131 1.14639 0.0 10.8752 0.0 11.1209 20.49955 2.36762 0.0 -32.575798 0.0 
  4.010409851074218 3.7286199951171874 9.954879760742188 -157.134 67.533 157.644 4.8368 -4.51053 5.46087 -1.30904 9.6441 3.98137 32.3777 23.193 -9.89082 12.1525 -52.8719 17.6568 -96.97174 -6.29372 4.94609 -28.4358 12.4851 6.2109 0.0 128.635 0.0 24.0064 -18.9547 -45.1531 0.0 0.0 0.0 0.0 0.0 0.0 100.7079 -5.36442 0.745516 -42.5512 55.4119 35.3699 0.0 119.565 0.0 -4.13901 -20.2326 57.191 0.0 0.0 0.0 0.0 0.0 0.0 4.67347 -22.9604 0.66003 0.0 7.71442 0.0 15.237 8.78982 -4.39353 0.0 -32.703102 0.0 1.58526 -11.7782 1.12869 0.0 10.8023 0.0 11.099 20.46593 2.38717 0.0 -32.5194 0.0 
  4.015690002441406 3.734150085449219 9.954080200195312 -157.311 67.3857 157.794 4.70215 -4.4887 5.50722 -1.18815 9.78528 4.05061 32.4462 23.2188 -10.0056 11.9265 -52.9299 17.6362 -97.06549 -6.30487 4.93807 -28.4629 12.3827 6.30159 0.0 129.061 0.0 24.1583 -19.2197 -45.2044 0.0 0.0 0.0 0.0 0.0 0.0 100.6493 -5.45713 0.894737 -42.2931 55.3398 35.4335 0.0 119.559 0.0 -3.87703 -19.7177 56.5562 0.0 0.0 0.0 0.0 0.0 0.0 4.64557 -23.1194 0.633432 0.0 7.64912 0.0 15.2254 8.82905 -4.3938 0.0 -32.6846 0.0 1.54608 -11.9318 1.07139 0.0 10.7372 0.0 11.1145 20.43912 2.43581 0.0 -32.429703 0.0 
  4.020910034179687 3.7397500610351564 9.9527099609375 -157.276 67.275 157.807 4.68301 -4.38744 5.49507 -1.1915 9.79823 4.03989 32.4122 23.3534 -9.92133 11.8009 -52.9473 17.4983 -97.10928 -6.37185 4.99431 -28.4303 12.3601 6.264 0.0 129.255 0.0 24.2289 -19.1836 -45.0241 0.0 0.0 0.0 0.0 0.0 0.0 100.6888 -5.42056 0.751096 -42.2655 55.0786 35.6342 0.0 119.239 0.0 -3.50296 -19.0496 56.7725 0.0 0.0 0.0 0.0 0.0 0.0 4.64731 -23.2502 0.463826 0.0 7.62686 0.0 15.2031 8.83658 -4.30861 0.0 -32.6628 0.0 1.55323 -12.0202 1.02541 0.0 10.6845 0.0 11.1276 20.42773 2.4546 0.0 -32.3975 0.0 
  4.025490112304688 3.7453399658203126 9.951580200195313 -157.199 67.2294 157.728 4.69408 -4.48275 5.75099 -1.22891 10.2228 4.30795 32.6275 23.1032 -10.3426 11.7612 -52.9038 17.5718 -96.9749 -5.83548 4.88745 -28.61 12.4095 6.17041 0.0 129.185 0.0 24.3055 -18.9647 -44.2741 0.0 0.0 0.0 0.0 0.0 0.0 100.6223 -5.75992 1.38637 -41.2991 55.2091 34.8453 0.0 118.704 0.0 -3.19461 -18.6307 57.0294 0.0 0.0 0.0 0.0 0.0 0.0 4.66948 -23.333 0.540557 0.0 7.66089 0.0 15.2565 8.78418 -4.36044 0.0 -32.670998 0.0 1.57911 -12.0854 1.22203 0.0 10.7042 0.0 11.2049 20.368519 2.32156 0.0 -32.341 0.0 
